<svg width="340" height="404" viewBox="0 0 340 404" fill="none" xmlns="http://www.w3.org/2000/svg">
<rect x="4" y="4" width="336" height="250" fill="#DAE6F3"/>
<ellipse cx="172.5" cy="237.5" rx="167.5" ry="165.5" fill="#DAE6F3"/>
<path d="M82.0938 290.357C92.5464 310.436 85.3541 334.869 66.0293 344.928C46.7045 354.988 32.0209 338.628 21.5682 318.549C11.1156 298.47 8.85227 282.275 28.177 272.215C47.5018 262.155 71.6412 270.277 82.0938 290.357Z" fill="#BAC6D6"/>
<path d="M249.718 285.845C263.669 263.947 292.728 257.503 314.624 271.453C336.52 285.402 328.896 309.501 314.946 331.399C300.995 353.296 286 364.701 264.105 350.752C242.209 336.803 235.768 307.743 249.718 285.845Z" fill="#21BCF7"/>
<circle cx="45.5" cy="222.5" r="45.5" fill="#0A1E51"/>
<path d="M199.5 348C188.759 348 178.457 343.733 170.862 336.138C163.267 328.543 159 318.241 159 307.5C159 296.759 163.267 286.457 170.862 278.862C178.457 271.267 188.759 267 199.5 267V307.5V348Z" fill="#BAC6D6"/>
<path d="M340 -1.31238e-06C340 11.4043 335.101 22.3415 326.38 30.4056C317.66 38.4697 305.833 43 293.5 43C281.167 43 269.34 38.4697 260.62 30.4056C251.899 22.3415 247 11.4043 247 -1.3113e-06L293.5 -1.31184e-06L340 -1.31238e-06Z" fill="#0A1E51"/>
<path d="M340 43C340 54.4043 335.101 65.3415 326.38 73.4056C317.66 81.4697 305.833 86 293.5 86C281.167 86 269.34 81.4697 260.62 73.4056C251.899 65.3415 247 54.4043 247 43L293.5 43L340 43Z" fill="#BAC6D6"/>
<path d="M243 347C232.126 347 221.698 342.733 214.009 335.138C206.32 327.543 202 317.241 202 306.5C202 295.759 206.32 285.457 214.009 277.862C221.698 270.267 232.126 266 243 266V306.5V347Z" fill="#0A1E51"/>
<circle cx="120" cy="307" r="39" fill="#BAC6D6"/>
<circle cx="134" cy="39" r="39" fill="#21BCF7"/>
<circle cx="293" cy="125" r="39" fill="#21BCF7"/>
<circle cx="209" cy="39" r="39" fill="#4936B3"/>
<path d="M159.158 392.186C153.285 410.262 137.874 401.834 117.623 395.254C97.3731 388.674 79.9516 386.434 85.8246 368.359C91.6975 350.284 112.875 340.965 133.125 347.545C153.375 354.125 165.031 374.111 159.158 392.186Z" fill="#21BCF7"/>
<path d="M232.403 374.415C237.052 391.764 220.813 392.932 201.763 398.037C182.713 403.141 168.066 410.249 163.418 392.899C158.769 375.549 170.443 357.347 189.493 352.242C208.542 347.138 227.754 357.065 232.403 374.415Z" fill="#0A1E51"/>
<path d="M97 177C97 165.05 94.6203 153.216 89.9969 142.176C85.3735 131.135 78.5968 121.103 70.0538 112.653C61.5108 104.203 51.3688 97.5001 40.2069 92.927C29.0449 88.3538 17.0816 86 4.99999 86L5 177H97Z" fill="#4936B3"/>
<path d="M236 168.5C236 181.304 238.587 193.982 243.612 205.812C248.638 217.641 256.003 228.389 265.289 237.443C274.575 246.497 285.599 253.678 297.732 258.578C309.864 263.478 322.868 266 336 266L336 168.5H236Z" fill="#4936B3"/>
<line x1="4.01075" y1="25.0001" x2="97.0107" y2="26.0001" stroke="#4936B3" stroke-width="2"/>
<line x1="3.01" y1="15.0001" x2="102.01" y2="15.9897" stroke="#4936B3" stroke-width="2"/>
<path d="M152 401L150 226" stroke="#4936B3" stroke-width="2"/>
<path d="M134 400.377L134 204.5" stroke="#4936B3" stroke-width="2"/>
<path d="M143.5 403.043L142.5 214" stroke="#4936B3" stroke-width="2"/>
<path d="M126 397.752L126 195" stroke="#4936B3" stroke-width="2"/>
<path d="M118 395L118 188" stroke="#4936B3" stroke-width="2"/>
<path d="M111 393L110 179" stroke="#4936B3" stroke-width="2"/>
<line x1="165.986" y1="59.8306" x2="168.214" y2="72.7934" stroke="#4936B3" stroke-width="2"/>
<path d="M164.02 102.492L169.502 102.455" stroke="#4936B3" stroke-width="2"/>
<path d="M157.324 110.899L169.489 111.02" stroke="#4936B3" stroke-width="2"/>
<path d="M141.012 118.045L170.565 119.282" stroke="#4936B3" stroke-width="2"/>
<path d="M134.003 126L170.647 127.516" stroke="#4936B3" stroke-width="2"/>
<line x1="158.988" y1="68.844" x2="161.988" y2="87.844" stroke="#4936B3" stroke-width="2"/>
<line x1="148.982" y1="74.8129" x2="152.982" y2="95.8129" stroke="#4936B3" stroke-width="2"/>
<line x1="139.976" y1="77.7831" x2="145.976" y2="104.783" stroke="#4936B3" stroke-width="2"/>
<path d="M161 214.5L167 214.5L173 214" stroke="#4936B3" stroke-width="2"/>
<path d="M156 204.35L164.288 204.42L172.5 204.5" stroke="#4936B3" stroke-width="2"/>
<path d="M144.807 194.964L157.713 194.713L170.5 194.503" stroke="#4936B3" stroke-width="2"/>
<path d="M138.969 186.937L155.495 186.335L170.702 185.48" stroke="#4936B3" stroke-width="2"/>
<path d="M133.646 178.259L152.961 177.742L170.733 176.965" stroke="#4936B3" stroke-width="2"/>
<path d="M125.532 169.134L149.926 168.772L171 168.5" stroke="#4936B3" stroke-width="2"/>
<path d="M127 78.0364L129.195 86.0114L131.391 94.4608L135.433 110.7" stroke="#4936B3" stroke-width="2"/>
<path d="M117 78.0364L119.748 88.1547L122.528 98.8664L127.69 119.442" stroke="#4936B3" stroke-width="2"/>
<line x1="3.01075" y1="44.0001" x2="96.0107" y2="45.0001" stroke="#4936B3" stroke-width="2"/>
<line x1="4.01075" y1="54.0001" x2="97.0107" y2="55.0001" stroke="#4936B3" stroke-width="2"/>
<line x1="6.01075" y1="64.0001" x2="99.0107" y2="65.0001" stroke="#4936B3" stroke-width="2"/>
<line x1="4" y1="35" x2="95" y2="35" stroke="#4936B3" stroke-width="2"/>
<path d="M95 26C119.246 26 149.634 33.5 159 69" stroke="#4936B3" stroke-width="2"/>
<path d="M102 16C126.246 16 156.634 23.8488 166 61" stroke="#4936B3" stroke-width="2"/>
<path d="M174.5 83.5C171 83.5 167.429 84.8092 168.171 72.4372" stroke="#4936B3" stroke-width="2"/>
<path d="M172.5 93C169 93 160.758 95.372 161.5 83" stroke="#4936B3" stroke-width="2"/>
<path d="M164.5 102.5C161 102.5 154.5 103.5 153 95.5" stroke="#4936B3" stroke-width="2"/>
<path d="M157.667 110.877C154.167 110.877 147.5 112.5 146 104.5" stroke="#4936B3" stroke-width="2"/>
<path d="M142 118C139.399 117.673 137.217 117.875 135.354 110.007" stroke="#4936B3" stroke-width="2"/>
<path d="M134.5 126C131.899 125.673 129.363 126.868 127.5 119" stroke="#4936B3" stroke-width="2"/>
<path d="M150 226C150 219.235 149 214 161 214.5" stroke="#4936B3" stroke-width="2"/>
<path d="M142.5 214.5C142.5 207.099 143.606 204.406 156 204.5" stroke="#4936B3" stroke-width="2"/>
<path d="M118 189.5C118 182.099 121.5 178.5 134 178.5" stroke="#4936B3" stroke-width="2"/>
<path d="M110.5 179C110.5 171.599 115.075 169.501 127.575 169.501" stroke="#4936B3" stroke-width="2"/>
<path d="M133.918 204.689C133.604 198.697 137 195 146 195" stroke="#4936B3" stroke-width="2"/>
<path d="M126 197C125.686 191.008 130.5 186.5 139.779 186.955" stroke="#4936B3" stroke-width="2"/>
<path d="M95 35C115.458 35 141.098 41.9767 149 75" stroke="#4936B3" stroke-width="2"/>
<path d="M95 45C112.048 45 133.415 50.7558 140 78" stroke="#4936B3" stroke-width="2"/>
<path d="M96 55C107.744 55 122.463 59.0116 127 78" stroke="#4936B3" stroke-width="2"/>
<path d="M96 65C103.956 65 113.927 67.2674 117 78" stroke="#4936B3" stroke-width="2"/>
<mask id="path-64-inside-1_0_1" fill="white">
<path d="M171.169 82.6356C179.464 82.5632 187.693 84.2051 195.386 87.4677C203.079 90.7303 210.086 95.5496 216.005 101.651C221.925 107.751 226.641 115.014 229.886 123.025C233.131 131.035 234.84 139.636 234.916 148.336C234.992 157.037 233.433 165.666 230.328 173.732C227.224 181.798 222.635 189.142 216.823 195.345C211.011 201.548 204.09 206.489 196.455 209.885C188.82 213.282 180.621 215.067 172.325 215.14L172.225 203.719C179.091 203.659 185.877 202.182 192.196 199.371C198.514 196.56 204.243 192.471 209.053 187.337C213.863 182.203 217.661 176.125 220.23 169.449C222.8 162.774 224.09 155.632 224.027 148.431C223.964 141.231 222.549 134.112 219.864 127.483C217.179 120.853 213.275 114.842 208.376 109.793C203.477 104.744 197.678 100.755 191.311 98.0551C184.945 95.355 178.134 93.996 171.268 94.0559L171.169 82.6356Z"/>
</mask>
<path d="M171.169 82.6356C179.464 82.5632 187.693 84.2051 195.386 87.4677C203.079 90.7303 210.086 95.5496 216.005 101.651C221.925 107.751 226.641 115.014 229.886 123.025C233.131 131.035 234.84 139.636 234.916 148.336C234.992 157.037 233.433 165.666 230.328 173.732C227.224 181.798 222.635 189.142 216.823 195.345C211.011 201.548 204.09 206.489 196.455 209.885C188.82 213.282 180.621 215.067 172.325 215.14L172.225 203.719C179.091 203.659 185.877 202.182 192.196 199.371C198.514 196.56 204.243 192.471 209.053 187.337C213.863 182.203 217.661 176.125 220.23 169.449C222.8 162.774 224.09 155.632 224.027 148.431C223.964 141.231 222.549 134.112 219.864 127.483C217.179 120.853 213.275 114.842 208.376 109.793C203.477 104.744 197.678 100.755 191.311 98.0551C184.945 95.355 178.134 93.996 171.268 94.0559L171.169 82.6356Z" stroke="#4936B3" stroke-width="4" mask="url(#path-64-inside-1_0_1)"/>
<mask id="path-65-inside-2_0_1" fill="white">
<path d="M169.135 101.403C175.193 101.35 181.203 102.509 186.821 104.815C192.439 107.121 197.555 110.527 201.877 114.841C206.199 119.154 209.642 124.289 212.01 129.953C214.378 135.617 215.625 141.699 215.678 147.852C215.732 154.005 214.592 160.107 212.323 165.812C210.054 171.517 206.701 176.711 202.455 181.099C198.209 185.487 193.153 188.983 187.576 191.386C182 193.789 176.011 195.054 169.953 195.106L169.86 184.489C174.545 184.448 179.177 183.47 183.49 181.612C187.803 179.753 191.713 177.05 194.997 173.656C198.28 170.262 200.874 166.245 202.629 161.833C204.383 157.421 205.265 152.702 205.223 147.943C205.182 143.185 204.218 138.481 202.386 134.101C200.555 129.72 197.892 125.748 194.549 122.413C191.207 119.077 187.25 116.442 182.906 114.659C178.561 112.876 173.913 111.979 169.227 112.02L169.135 101.403Z"/>
</mask>
<path d="M169.135 101.403C175.193 101.35 181.203 102.509 186.821 104.815C192.439 107.121 197.555 110.527 201.877 114.841C206.199 119.154 209.642 124.289 212.01 129.953C214.378 135.617 215.625 141.699 215.678 147.852C215.732 154.005 214.592 160.107 212.323 165.812C210.054 171.517 206.701 176.711 202.455 181.099C198.209 185.487 193.153 188.983 187.576 191.386C182 193.789 176.011 195.054 169.953 195.106L169.86 184.489C174.545 184.448 179.177 183.47 183.49 181.612C187.803 179.753 191.713 177.05 194.997 173.656C198.28 170.262 200.874 166.245 202.629 161.833C204.383 157.421 205.265 152.702 205.223 147.943C205.182 143.185 204.218 138.481 202.386 134.101C200.555 129.72 197.892 125.748 194.549 122.413C191.207 119.077 187.25 116.442 182.906 114.659C178.561 112.876 173.913 111.979 169.227 112.02L169.135 101.403Z" stroke="#4936B3" stroke-width="4" mask="url(#path-65-inside-2_0_1)"/>
<mask id="path-66-inside-3_0_1" fill="white">
<path d="M170.23 118.238C173.806 118.206 177.353 118.947 180.67 120.416C183.987 121.885 187.008 124.055 189.561 126.801C192.113 129.547 194.148 132.816 195.548 136.421C196.948 140.026 197.686 143.896 197.72 147.811C197.754 151.726 197.084 155.608 195.747 159.237C194.41 162.866 192.433 166.17 189.928 168.96C187.424 171.75 184.441 173.972 181.151 175.499C177.86 177.026 174.326 177.828 170.75 177.859L170.66 167.492C172.992 167.472 175.297 166.949 177.443 165.953C179.59 164.957 181.535 163.508 183.168 161.688C184.802 159.868 186.091 157.713 186.963 155.346C187.835 152.979 188.273 150.447 188.25 147.893C188.228 145.34 187.747 142.816 186.833 140.465C185.92 138.113 184.593 135.981 182.928 134.19C181.264 132.399 179.293 130.984 177.13 130.026C174.967 129.067 172.653 128.584 170.32 128.605L170.23 118.238Z"/>
</mask>
<path d="M170.23 118.238C173.806 118.206 177.353 118.947 180.67 120.416C183.987 121.885 187.008 124.055 189.561 126.801C192.113 129.547 194.148 132.816 195.548 136.421C196.948 140.026 197.686 143.896 197.72 147.811C197.754 151.726 197.084 155.608 195.747 159.237C194.41 162.866 192.433 166.17 189.928 168.96C187.424 171.75 184.441 173.972 181.151 175.499C177.86 177.026 174.326 177.828 170.75 177.859L170.66 167.492C172.992 167.472 175.297 166.949 177.443 165.953C179.59 164.957 181.535 163.508 183.168 161.688C184.802 159.868 186.091 157.713 186.963 155.346C187.835 152.979 188.273 150.447 188.25 147.893C188.228 145.34 187.747 142.816 186.833 140.465C185.92 138.113 184.593 135.981 182.928 134.19C181.264 132.399 179.293 130.984 177.13 130.026C174.967 129.067 172.653 128.584 170.32 128.605L170.23 118.238Z" stroke="#4936B3" stroke-width="4" mask="url(#path-66-inside-3_0_1)"/>
<path d="M168.5 84.5H174.5L174 92H168L168.5 84.5Z" fill="#DAE6F3"/>
<path d="M171.5 205.5H174H174.5L176 213H171L171.5 205.5Z" fill="#DAE6F3"/>
<path d="M167 103.5H171.5L172.538 110H167V103.5Z" fill="#DAE6F3"/>
<path d="M168 187L170.5 186.5H172L172.5 193L168 193.5V187Z" fill="#DAE6F3"/>
<path d="M168 120L172.5 120.5L174 127L168 126.5V120Z" fill="#DAE6F3"/>
<path d="M173.004 175.778L169.617 175.776L168 169.105L174.008 169.515L173.004 175.778Z" fill="#DAE6F3"/>
<circle cx="65.5" cy="26.5" r="5.5" fill="#0A1E51"/>
<circle cx="75.5" cy="90.5" r="12.5" fill="#BAC6D6"/>
<circle cx="227.5" cy="207.5" r="12.5" fill="#BAC6D6"/>
<circle cx="250.5" cy="87.5" r="12.5" fill="#BAC6D6"/>
<circle cx="255.5" cy="254.5" r="12.5" fill="#BAC6D6"/>
<circle cx="108.5" cy="134.5" r="12.5" fill="#BAC6D6"/>
<circle cx="134.5" cy="65.5" r="5.5" fill="#0A1E51"/>
<circle cx="205.5" cy="154.5" r="5.5" fill="#0A1E51"/>
<circle cx="199.5" cy="169.5" r="5.5" fill="#0A1E51"/>
<circle cx="126.5" cy="257.5" r="5.5" fill="#0A1E51"/>
<circle cx="143.5" cy="344.5" r="5.5" fill="#0A1E51"/>
<circle cx="125.5" cy="275.5" r="5.5" fill="#0A1E51"/>
<circle cx="193.5" cy="109.5" r="5.5" fill="#0A1E51"/>
<circle cx="19.5" cy="54.5" r="5.5" fill="#0A1E51"/>
<circle cx="34.5" cy="54.5" r="5.5" fill="#0A1E51"/>
</svg>
