<svg width="386" height="382" viewBox="0 0 386 382" fill="none" xmlns="http://www.w3.org/2000/svg">
<path fill-rule="evenodd" clip-rule="evenodd" d="M47.9144 117.212C80.0366 164.619 222.041 157.564 230.264 154.843C238.488 152.122 218.53 140.225 213.917 133.133C144.646 115.323 99.144 110.388 62.9886 77.9171C46.3769 63.0819 32.6685 94.7133 47.9144 117.212Z" fill="#FBB017"/>
<path fill-rule="evenodd" clip-rule="evenodd" d="M38.4823 265.658C95.1681 269.225 177.097 151.644 180.072 143.409C183.047 135.173 175.066 130.267 166.728 129.587C110.185 173.861 64.705 220.602 17.1367 229.474C-4.65235 233.534 11.5732 263.964 38.4823 265.658Z" fill="#009B95"/>
<path fill-rule="evenodd" clip-rule="evenodd" d="M145.296 363.794C182.975 320.786 141.857 183.058 137.259 175.641C132.661 168.223 125.917 170.908 120.261 177.117C119.939 249.484 126.354 315.149 103.978 358.54C93.7379 378.412 127.412 384.208 145.296 363.794Z" fill="#1F61AD"/>
<path fill-rule="evenodd" clip-rule="evenodd" d="M289.739 339.522C279.449 282.989 146.891 230.972 138.26 230.06C129.629 229.149 126.547 236.4 127.912 244.773C184.062 289.575 240.183 324.665 260.206 369.243C269.373 389.636 294.623 366.348 289.739 339.522Z" fill="#5F439A"/>
<path fill-rule="evenodd" clip-rule="evenodd" d="M361.363 209.559C311.013 182.964 188.91 256.662 182.875 262.973C176.839 269.283 181.688 276.209 189.046 280.276C258.504 263.081 319.301 239.924 366.319 251.401C387.858 256.662 385.269 222.18 361.363 209.559Z" fill="#AF3862"/>
<path fill-rule="evenodd" clip-rule="evenodd" d="M304.02 73.7415C252.311 97.5212 234.526 240.264 235.721 248.963C236.915 257.661 244.903 259.26 252.597 255.895C281.973 189.926 301.767 125.976 339.653 95.5528C357.008 81.615 328.562 62.4523 304.02 73.7415Z" fill="#ED2F24"/>
<path fill-rule="evenodd" clip-rule="evenodd" d="M163.453 38.0938C150.131 93.968 250.344 196.034 257.846 200.434C265.347 204.833 274.222 200.571 276.338 192.357C243.05 128.32 202.74 72.0482 202.369 23.1067C202.204 0.680294 169.767 11.5715 163.453 38.0938Z" fill="#F47E20"/>
<path fill-rule="evenodd" clip-rule="evenodd" d="M197.728 130.238C192.314 149.625 200.588 150.978 203.885 156.949C214.275 170.582 241.62 159.843 245.603 158.164L247.749 157.404C253.991 155.132 258.025 149.813 256.666 145.999C255.951 143.959 253.806 142.656 251.067 142.229C254.006 139.704 255.507 136.498 254.606 133.95C253.705 131.403 250.852 130.101 247.241 130.035C249.822 127.589 251.074 124.622 250.23 122.249C249.114 119.108 244.76 117.711 239.782 118.565C241.391 116.583 242.092 114.39 241.441 112.573C240.197 109.056 234.526 107.899 228.77 109.99C226.782 110.694 224.945 111.775 223.357 113.174C215.355 114.274 201.339 117.313 197.728 130.238Z" fill="#FBB017"/>
<path fill-rule="evenodd" clip-rule="evenodd" d="M258.025 162.543C238.717 167.478 241.692 175.395 238.238 181.285C231.766 197.206 254.628 215.797 258.046 218.46L259.755 219.907C264.818 224.249 271.383 225.125 273.971 222.035C275.359 220.378 275.401 217.874 274.4 215.24C278.033 216.557 281.551 216.267 283.253 214.205C284.955 212.142 284.683 208.987 282.931 205.796C286.307 206.831 289.475 206.447 291.091 204.515C293.236 201.975 292.235 197.459 289.017 193.523C291.52 193.942 293.744 193.457 294.981 191.981C297.362 189.137 295.517 183.587 290.855 179.585C289.258 178.193 287.413 177.122 285.42 176.43C280.5 170.011 270.896 159.25 258.025 162.543Z" fill="#F47E20"/>
<path fill-rule="evenodd" clip-rule="evenodd" d="M264.024 224.64C248.042 212.635 243.858 219.965 237.165 220.986C220.889 225.979 221.118 255.664 221.247 260.027C221.247 260.794 221.211 261.598 221.197 262.3C221.075 269.015 224.558 274.711 228.562 274.783C230.708 274.826 232.667 273.285 234.033 270.824C235.327 274.508 237.759 277.055 240.426 277.106C243.093 277.157 245.317 274.935 246.662 271.534C248.006 274.841 250.301 277.077 252.797 277.12C256.087 277.178 258.926 273.56 259.905 268.538C261.164 270.774 262.937 272.207 264.854 272.243C268.536 272.308 271.618 267.351 271.726 261.171C271.787 259.038 271.442 256.912 270.71 254.911C272.512 246.98 274.658 232.644 264.024 224.64Z" fill="#ED2F24"/>
<path fill-rule="evenodd" clip-rule="evenodd" d="M219.452 274.001C217.178 253.985 209.033 255.91 203.72 251.662C188.989 243.05 167.736 263.508 164.676 266.584L163.002 268.104C158.075 272.598 156.345 279.067 159.033 282.078C160.464 283.691 162.916 284.082 165.634 283.409C163.86 286.883 163.682 290.421 165.469 292.426C167.257 294.43 170.382 294.546 173.743 293.222C172.313 296.478 172.234 299.735 173.908 301.573C176.117 304.048 180.672 303.664 184.956 300.958C184.241 303.411 184.391 305.705 185.671 307.145C188.145 309.917 193.823 308.802 198.357 304.656C199.938 303.23 201.234 301.51 202.175 299.59C209.148 295.545 220.961 287.346 219.452 274.001Z" fill="#AF3862"/>
<path fill-rule="evenodd" clip-rule="evenodd" d="M156.724 267.206C172.091 254.405 166.07 248.528 166.735 241.711C165.877 224.517 137.352 217.577 133.125 216.651L130.98 216.058C124.544 214.313 118.266 216.361 117.229 220.276C116.671 222.375 117.679 224.669 119.71 226.609C115.863 226.992 112.831 228.78 112.137 231.37C111.444 233.961 113.053 236.696 115.977 238.831C112.488 239.36 109.785 241.067 109.141 243.513C108.29 246.726 111.079 250.395 115.656 252.559C113.21 253.283 111.408 254.658 110.915 256.532C109.956 260.15 113.968 264.355 119.868 265.94C121.9 266.511 124.021 266.685 126.117 266.454C133.247 270.166 146.476 275.745 156.724 267.206Z" fill="#5F439A"/>
<path fill-rule="evenodd" clip-rule="evenodd" d="M123.486 210.493C143.309 212.374 143.123 203.907 148.329 199.529C159.692 186.72 144.288 161.45 141.95 157.788L140.827 155.82C137.495 150.03 131.595 146.969 128.134 149.01C126.275 150.095 125.395 152.44 125.481 155.262C122.492 152.795 119.103 151.89 116.793 153.243C114.483 154.597 113.732 157.679 114.319 161.276C111.458 159.156 108.369 158.447 106.209 159.72C103.349 161.392 102.791 165.98 104.529 170.785C102.312 169.54 100.052 169.244 98.4005 170.221C95.2111 172.095 95.111 177.949 98.1931 183.29C99.2335 185.144 100.615 186.78 102.262 188.11C104.772 195.846 110.271 209.262 123.486 210.493Z" fill="#1F61AD"/>
<path fill-rule="evenodd" clip-rule="evenodd" d="M217.128 132.872C197.248 127.756 179.328 123.703 163.024 119.759C176.367 129.681 189.189 141.621 195.325 156.601C215.912 156.645 230.951 155.407 233.482 154.582C241.763 151.876 221.74 139.957 217.128 132.872Z" fill="#FBB017"/>
<path fill-rule="evenodd" clip-rule="evenodd" d="M150.56 152.158C164.618 166.421 169.824 159.793 176.589 159.785C193.423 157.289 197.527 127.893 198.042 123.566C198.171 122.799 198.307 122.01 198.421 121.323C199.522 114.701 196.912 108.543 192.965 107.87C190.82 107.508 188.674 108.738 186.972 110.967C186.257 107.131 184.198 104.244 181.566 103.795C178.935 103.347 176.417 105.243 174.587 108.376C173.743 104.903 171.798 102.348 169.338 101.928C166.091 101.378 162.752 104.541 161.057 109.353C160.135 106.958 158.59 105.272 156.702 104.953C153.062 104.331 149.294 108.774 148.278 114.875C147.912 116.975 147.944 119.126 148.371 121.214C145.418 128.791 141.185 142.642 150.56 152.158Z" fill="#009B95"/>
<path d="M66.6572 311.306L11.845 241.06L30.2015 161.443" stroke="#009B95" stroke-width="23" stroke-linejoin="round"/>
<path d="M200.781 369.424L111.673 368.997L66.6572 311.306" stroke="#1F61AD" stroke-width="23" stroke-linejoin="round"/>
<path d="M327.124 301.443L272.748 369.771L200.781 369.424" stroke="#5F439A" stroke-width="23" stroke-linejoin="round"/>
<path d="M355.771 161.153L373.785 242.811L327.125 301.443" stroke="#AF3862" stroke-width="23" stroke-linejoin="round"/>
<path d="M264.375 47.0672L338.687 83.7281L355.771 161.153" stroke="#ED2F24" stroke-width="23" stroke-linejoin="round"/>
<path d="M117.086 49.2744L193.895 12.2951L264.375 47.0672" stroke="#F47E20" stroke-width="23" stroke-linejoin="round"/>
<path d="M30.2014 161.443L48.4364 82.317L117.086 49.2744" stroke="#FBB017" stroke-width="23" stroke-linejoin="round"/>
</svg>
